<?xml version="1.0" encoding="utf-8"?>
<!-- Generator: Adobe Illustrator 15.0.0, SVG Export Plug-In . SVG Version: 6.00 Build 0)  -->
<!DOCTYPE svg PUBLIC "-//W3C//DTD SVG 1.1//EN" "http://www.w3.org/Graphics/SVG/1.1/DTD/svg11.dtd">
<svg version="1.1" id="Layer_1" xmlns="http://www.w3.org/2000/svg" xmlns:xlink="http://www.w3.org/1999/xlink" x="0px" y="0px"
	 width="14px" height="14px" viewBox="0 0 14 14" enable-background="new 0 0 14 14" xml:space="preserve">
<path fill="#FFFFFF" d="M7,2C3,2,0,7,0,7s3,5,7,5s7-5,7-5S11,2,7,2z M7,10.406C5.119,10.406,3.594,8.88,3.594,7
	c0-1.881,1.524-3.406,3.406-3.406c1.881,0,3.406,1.524,3.406,3.406C10.406,8.88,8.881,10.406,7,10.406z M7,4.979
	C5.885,4.979,4.979,5.883,4.979,7c0,1.116,0.906,2.021,2.021,2.021S9.021,8.117,9.021,7S8.115,4.979,7,4.979z"/>
</svg>
