<?xml version="1.0" encoding="utf-8"?>
<!-- Generator: Adobe Illustrator 15.0.0, SVG Export Plug-In . SVG Version: 6.00 Build 0)  -->
<!DOCTYPE svg PUBLIC "-//W3C//DTD SVG 1.1//EN" "http://www.w3.org/Graphics/SVG/1.1/DTD/svg11.dtd">
<svg version="1.1" id="Layer_1" xmlns="http://www.w3.org/2000/svg" xmlns:xlink="http://www.w3.org/1999/xlink" x="0px" y="0px"
	 width="14px" height="14px" viewBox="0 0 14 14" enable-background="new 0 0 14 14" xml:space="preserve">
<g id="Layer_1_1_" display="none">
	
		<line display="inline" fill="none" stroke="#231F20" stroke-width="1.5" stroke-miterlimit="10" x1="39.167" y1="24" x2="28.419" y2="35.749"/>
	<g display="inline">
		<path fill="#231F20" d="M7,9.021c1.115,0,2.021-0.904,2.021-2.021c0-0.33-0.086-0.636-0.227-0.911L6.089,8.794
			C6.364,8.936,6.671,9.021,7,9.021z"/>
		<path fill="#231F20" d="M2.849,10.268l1.344-1.344C3.816,8.376,3.594,7.714,3.594,7c0-1.881,1.524-3.406,3.406-3.406
			c0.715,0,1.376,0.222,1.924,0.598l1.2-1.2C9.193,2.412,8.141,2,7,2C3,2,0,7,0,7S1.1,8.822,2.849,10.268z"/>
		<path fill="#231F20" d="M11.15,3.733L9.809,5.076C10.186,5.624,10.406,6.285,10.406,7c0,1.88-1.525,3.406-3.406,3.406
			c-0.715,0-1.376-0.223-1.924-0.6l-1.2,1.2C4.807,11.588,5.86,12,7,12c4,0,7-5,7-5S12.9,5.178,11.15,3.733z"/>
		<path fill="#231F20" d="M7,4.979C5.885,4.979,4.979,5.883,4.979,7c0,0.33,0.086,0.636,0.226,0.91L7.91,5.206
			C7.637,5.066,7.329,4.979,7,4.979z"/>
	</g>
	
		<line display="inline" fill="none" stroke="#231F20" stroke-width="0.75" stroke-miterlimit="10" x1="1.526" y1="12.797" x2="12.213" y2="2.11"/>
</g>
<path fill="#FFFFFF" d="M4.539,6.53c-0.071,0.104-0.141,0.205-0.21,0.305C3.465,5.674,2.49,4.837,0.083,4.838l-0.001-2.33
	c3.036-0.001,4.584,1.164,5.645,2.444C5.262,5.474,4.887,6.021,4.539,6.53L4.539,6.53z M6.916,8.314
	c-0.217,0.316-0.45,0.656-0.716,1c0.991,1.021,2.292,1.846,4.675,1.977l-0.45,1.515c-0.021,0.06-0.005,0.127,0.044,0.164
	c0.049,0.039,0.116,0.039,0.166,0l3.312-2.677c0.033-0.026,0.055-0.067,0.055-0.112c0-0.044-0.021-0.086-0.055-0.111l-3.313-2.675
	c-0.024-0.02-0.054-0.027-0.083-0.027s-0.058,0.008-0.083,0.026c-0.049,0.039-0.065,0.106-0.044,0.167l0.452,1.419
	C9.113,8.861,8.282,8.273,7.547,7.425C7.337,7.699,7.133,7.996,6.916,8.314L6.916,8.314z M13.943,4.24
	c0.037-0.026,0.056-0.068,0.056-0.113s-0.021-0.085-0.056-0.111l-3.312-2.675c-0.05-0.038-0.117-0.039-0.166-0.001
	c-0.049,0.039-0.064,0.104-0.044,0.167l0.412,1.514C7.135,3.225,5.936,5.15,4.845,6.745C3.801,8.272,2.976,9.479,0.085,9.48
	l0.001,2.33c4.032-0.002,5.438-2.059,6.566-3.71c0.993-1.449,1.661-2.617,4.181-2.788l-0.41,1.438
	c-0.022,0.06-0.005,0.127,0.044,0.166c0.025,0.019,0.055,0.026,0.083,0.026c0.029,0,0.058-0.009,0.083-0.028L13.943,4.24z"/>
</svg>
