<?xml version="1.0" encoding="utf-8"?>
<!-- Generator: Adobe Illustrator 15.0.0, SVG Export Plug-In . SVG Version: 6.00 Build 0)  -->
<!DOCTYPE svg PUBLIC "-//W3C//DTD SVG 1.1//EN" "http://www.w3.org/Graphics/SVG/1.1/DTD/svg11.dtd">
<svg version="1.1" id="Layer_1" xmlns="http://www.w3.org/2000/svg" xmlns:xlink="http://www.w3.org/1999/xlink" x="0px" y="0px"
	 width="14px" height="14px" viewBox="0 0 14 14" enable-background="new 0 0 14 14" xml:space="preserve">
<g>
	<path fill="#FFFFFF" d="M7,9.021c1.115,0,2.021-0.904,2.021-2.021c0-0.33-0.086-0.636-0.227-0.911L6.089,8.794
		C6.364,8.936,6.671,9.021,7,9.021z"/>
	<path fill="#FFFFFF" d="M2.849,10.268l1.344-1.344C3.816,8.376,3.594,7.714,3.594,7c0-1.881,1.524-3.406,3.406-3.406
		c0.715,0,1.376,0.222,1.924,0.598l1.2-1.2C9.193,2.412,8.141,2,7,2C3,2,0,7,0,7S1.1,8.822,2.849,10.268z"/>
	<path fill="#FFFFFF" d="M11.15,3.733L9.809,5.076C10.186,5.624,10.406,6.285,10.406,7c0,1.88-1.525,3.406-3.406,3.406
		c-0.715,0-1.376-0.223-1.924-0.6l-1.2,1.2C4.807,11.588,5.86,12,7,12c4,0,7-5,7-5S12.9,5.178,11.15,3.733z"/>
	<path fill="#FFFFFF" d="M7,4.979C5.885,4.979,4.979,5.883,4.979,7c0,0.33,0.086,0.636,0.226,0.91L7.91,5.206
		C7.637,5.066,7.329,4.979,7,4.979z"/>
</g>
<line fill="none" stroke="#FFFFFF" stroke-width="0.75" stroke-miterlimit="10" x1="1.526" y1="12.797" x2="12.213" y2="2.11"/>
</svg>
